<svg width="160" height="160" viewBox="0 0 160 160" fill="none" xmlns="http://www.w3.org/2000/svg">
<mask id="mask0_1143_2041" style="mask-type:alpha" maskUnits="userSpaceOnUse" x="0" y="0" width="160" height="160">
<circle cx="79.7377" cy="79.7377" r="79.7377" fill="#D9D9D9"/>
</mask>
<g mask="url(#mask0_1143_2041)">
<path d="M123.451 145.569C123.085 145.83 122.667 146.092 122.301 146.353C121.882 146.614 121.516 146.876 121.098 147.085C120.732 147.294 120.418 147.503 120.052 147.713C120 147.765 119.948 147.765 119.896 147.817C118.693 148.549 117.438 149.229 116.183 149.856C115.817 150.065 115.399 150.275 115.033 150.431C115.033 150.431 114.98 150.484 114.928 150.484C114.51 150.693 114.092 150.902 113.673 151.111C112.837 151.53 111.948 151.896 111.111 152.262C110.693 152.471 110.222 152.628 109.804 152.784C109.386 152.941 108.915 153.15 108.497 153.307C108.079 153.464 107.608 153.673 107.19 153.83C107.19 153.83 107.19 153.83 107.137 153.83C106.719 153.987 106.248 154.144 105.83 154.301C104.889 154.614 103.896 154.928 102.954 155.242C102.641 155.347 102.275 155.451 101.961 155.556C100.967 155.869 99.974 156.131 98.9805 156.34C98.6145 156.445 98.2485 156.497 97.8302 156.601C96.889 156.811 95.8955 157.02 94.9543 157.229C94.7452 157.281 94.5883 157.281 94.3792 157.333C94.0655 157.386 93.6994 157.438 93.3857 157.49C92.9151 157.543 92.4968 157.647 92.0262 157.699C91.8171 157.752 91.6079 157.752 91.3988 157.804C91.1374 157.856 90.8236 157.909 90.5099 157.909C89.6733 158.013 88.7844 158.118 87.9478 158.222C87.6864 158.275 87.3727 158.275 87.1112 158.327H87.0589C86.6929 158.379 86.3269 158.379 85.9609 158.431C85.5949 158.484 85.2289 158.484 84.8628 158.484C84.6537 158.484 84.3923 158.536 84.1831 158.536C83.7648 158.536 83.3988 158.588 83.0328 158.588C82.5099 158.588 82.0393 158.641 81.5164 158.641C80.9936 158.641 80.523 158.641 80.0001 158.641C79.6341 158.641 79.2681 158.641 78.9021 158.641C56.8367 158.327 37.0197 148.967 22.8498 134.118C22.8498 134.118 22.8498 134.065 22.7975 134.065C21.2289 132.654 22.5883 125.124 28.9151 120.366C36.8628 114.353 55.8955 110.588 55.8955 110.588C55.8955 110.588 63.2681 109.386 90.6145 115.085C106.614 118.431 118.797 123.294 125.595 136.471C127.007 139.19 128.418 143.373 123.451 145.569Z" fill="white"/>
<path d="M90.7713 114.51C100.811 116.549 111.53 118.745 119.791 125.386C122.562 127.634 124.392 130.928 125.909 134.118C126.641 135.686 127.373 137.307 127.948 139.033C128.262 140.183 128.732 141.49 128.471 142.85C128.418 143.216 128.105 143.686 127.843 143.948C126.641 145.15 125.333 145.882 124.026 146.824C116.34 152.157 107.503 155.922 98.353 157.909C77.9609 162.353 55.8955 158.902 37.9609 148.183C32.0001 144.575 26.5099 140.183 21.804 135.007C21.2811 134.379 21.2811 133.333 21.2811 132.654C21.3334 131.085 21.7517 129.569 22.2746 128.157C23.5295 124.915 25.1504 121.673 27.9217 119.425C29.9086 118.065 32.0524 116.915 34.2484 115.974C41.1504 113.046 48.4184 111.007 55.8955 110.17C56.523 110.118 56.6275 111.007 56.0001 111.111C48.8367 112.575 41.7256 114.771 35.085 117.752C32.6798 118.954 30.1177 120 28.1831 121.882C26.353 123.869 25.0458 126.327 24.0001 128.837C23.3203 130.353 22.8498 132.758 23.0589 133.961C26.353 137.882 30.2223 141.333 34.4053 144.314C57.3073 160.314 92.0785 161.359 116.445 148.026C118.641 146.824 120.784 145.464 122.824 144.052C123.817 143.373 124.863 142.797 125.647 142.013C125.699 141.961 125.647 142.013 125.647 142.065C125.647 142.118 125.595 142.17 125.595 142.17C125.647 141.542 125.438 140.706 125.177 139.869C124.235 136.837 122.719 133.647 121.098 130.876C118.536 126.745 114.196 124.131 109.804 122.039C106.771 120.627 103.582 119.529 100.34 118.484C97.0981 117.438 93.804 116.549 90.5099 115.765C89.6733 115.556 89.9347 114.353 90.7713 114.51Z" fill="black"/>
<path d="M130.614 152.993C129.621 145.255 125.229 132.235 122.562 128.732C119.634 124.915 118.431 123.712 108.653 120.418C108.131 117.804 106.196 111.216 103.895 108.444C100.392 103.163 90.8233 101.961 87.9475 102.588C87.9475 102.588 72.4704 97.1501 54.6403 97.1501C48.9933 98.405 42.4573 100.967 38.9018 106.353C36.4965 109.908 39.2155 111.059 38.0129 114.3C37.6991 115.137 30.3789 119.32 27.3985 121.83C26.039 122.928 24.5227 125.699 23.4769 129.307C21.3854 136.68 23.6338 146.876 21.0194 155.765C15.9998 172.915 5.80371 178.039 5.80371 178.039H140.915C140.81 177.987 132.758 169.307 130.614 152.993Z" fill="url(#paint0_linear_1143_2041)"/>
<path d="M129.83 153.098C128.784 146.248 126.693 139.451 124.026 133.072C122.719 129.987 120.732 127.007 117.961 125.177C116.549 124.288 114.98 123.608 113.359 122.928C111.739 122.301 110.065 121.726 108.444 121.15C108.183 121.046 107.974 120.837 107.922 120.575C107.712 119.529 107.451 118.536 107.137 117.49C105.778 113.255 104.314 108.549 100.34 106.092C97.3072 104.262 93.6993 103.373 90.196 103.216C89.5163 103.216 88.7843 103.216 88.1568 103.32H87.9477C87.8954 103.32 87.7908 103.32 87.7385 103.268C85.2287 102.065 82.4575 101.333 79.7385 100.601C71.5817 98.719 63.0588 97.9347 54.6928 97.8824C49.5686 99.085 42.4052 101.909 39.2679 107.137C38.7451 107.974 38.4836 108.811 38.5882 109.752C38.6928 110.797 39.0588 111.948 38.7974 113.046C38.6928 113.516 38.5882 114.039 38.3791 114.458C37.9608 115.033 37.281 115.399 36.7581 115.765C34.0392 117.543 31.2679 119.111 28.6536 120.941C27.7647 121.569 26.9281 122.144 26.3006 123.033C24.4706 125.647 23.3725 128.784 22.9019 131.922C22.0653 138.301 22.9019 144.784 22.0653 151.163C21.1241 157.543 18.6666 163.712 15.2157 169.15C12.8104 172.811 9.88232 176.209 6.1699 178.562L5.80389 177.098H140.915L140.34 178.405C138.771 176.628 137.516 174.693 136.366 172.654C132.81 166.693 130.719 159.948 129.83 153.098ZM131.399 152.889C131.974 157.333 133.072 161.726 134.745 165.909C136.418 170.039 138.51 174.065 141.438 177.464C141.856 177.935 141.49 178.824 140.863 178.771H5.7516C5.3333 178.771 4.96729 178.405 4.96729 177.987C4.96729 177.673 5.12415 177.412 5.38559 177.307C6.22219 176.837 7.05879 176.157 7.8431 175.477C14.6928 169.307 18.9804 160.157 20.3921 151.059C21.5947 142.536 19.3464 133.333 23.1634 125.229C24.0523 123.346 25.1503 121.36 26.9281 120.157C30.1699 117.752 33.7255 115.974 36.915 113.621C36.9673 113.621 36.9673 113.569 36.9673 113.569C36.915 113.621 36.8627 113.726 36.8627 113.778C37.1764 113.046 37.281 112.418 37.1764 111.582C37.0196 110.536 36.7581 109.124 37.1241 108.026C37.281 107.399 37.5947 106.824 37.9085 106.353C41.6732 100.706 48.3137 98.1962 54.6405 96.7844C56.4183 96.8367 58.2483 96.5229 60.0261 96.5229C62.4836 96.5229 64.9934 96.889 67.4509 97.2027C74.5098 98.3007 81.3072 100.183 88.2614 101.699L87.7908 101.647C89.4117 101.333 90.9281 101.49 92.4967 101.699C102.536 103.216 105.935 107.608 108.654 116.967C108.967 118.013 109.229 119.059 109.49 120.157L108.967 119.529C113.987 121.307 119.634 122.928 122.823 127.582C123.974 128.994 124.81 130.667 125.542 132.34C128.209 139.033 130.301 145.778 131.399 152.889Z" fill="black"/>
<path d="M48.2092 118.588C52.0785 126.85 58.0916 133.856 65.255 139.399C65.5164 139.608 65.255 140.026 64.9412 139.869C58.5622 136.837 53.1765 131.66 49.987 125.386C48.9412 123.294 48.0523 121.046 47.7386 118.693C47.634 118.432 48.0523 118.327 48.2092 118.588Z" fill="black"/>
<path d="M109.438 120.314C109.595 129.046 106.039 137.987 99.242 143.634C99.0851 143.791 98.876 143.739 98.7191 143.582C98.5622 143.425 98.6145 143.216 98.7714 143.059C100.288 141.595 101.804 140.079 102.954 138.301C105.36 134.85 106.824 130.771 107.503 126.641C107.817 124.601 108.026 122.405 107.869 120.366C107.817 119.373 109.386 119.268 109.438 120.314Z" fill="black"/>
<path d="M78.6405 141.072C77.4379 145.307 76.4444 149.909 77.0196 154.301C77.1764 155.294 75.6601 155.556 75.451 154.51C75.1895 152.105 75.5032 149.752 75.9215 147.451C76.3921 145.15 76.9673 142.954 77.7516 140.758C77.9607 140.235 78.8496 140.497 78.6405 141.072Z" fill="black"/>
<path d="M95.2679 140.288C96.9934 144 98.196 147.869 99.1372 151.791C99.2418 152.209 98.9804 152.628 98.5621 152.732C98.1438 152.837 97.7255 152.575 97.6209 152.157C97.098 149.229 96.4183 146.301 95.4771 143.425C95.1634 142.484 94.8496 141.543 94.4836 140.601C94.2745 140.131 95.0065 139.765 95.2679 140.288Z" fill="black"/>
<path d="M39.111 114.092C41.0457 124.654 48.4705 133.595 57.4117 139.294C60.4444 141.229 63.6862 142.902 67.0326 144.262C67.2417 144.366 67.3463 144.575 67.2417 144.784C67.1895 144.994 66.928 145.098 66.7712 144.994C63.3202 143.739 59.9738 142.17 56.8365 140.288C50.4574 136.523 44.8627 131.294 41.0979 124.915C39.1633 121.621 37.647 118.17 36.9149 114.405C36.8104 113.778 37.2287 113.203 37.8561 113.098C38.4313 112.941 39.0587 113.412 39.111 114.092Z" fill="black"/>
<path d="M75.503 155.451C74.039 155.294 72.9932 153.935 73.3069 152.471L73.8821 149.699C74.0913 148.601 75.137 147.817 76.235 147.974C77.3331 148.078 78.222 149.02 78.222 150.17V152.993C78.2743 154.458 77.0194 155.608 75.503 155.451Z" fill="black"/>
<path d="M99.6078 153.517C98.196 154.039 96.6797 153.203 96.3137 151.739L95.6339 148.967C95.3725 147.869 95.9477 146.771 97.0457 146.353C98.0915 145.987 99.2941 146.458 99.7647 147.451L101.02 150.013C101.647 151.425 101.02 153.046 99.6078 153.517Z" fill="black"/>
<path d="M123.765 151.948C123.765 151.948 126.693 168.366 125.542 177.987" stroke="black" stroke-width="5.1257" stroke-miterlimit="10" stroke-linecap="round" stroke-linejoin="round"/>
<path d="M55.4769 112.209C54.7449 110.118 54.4312 107.974 54.588 105.778C54.588 105.569 54.7449 105.464 54.9541 105.464C55.1109 105.464 55.2678 105.621 55.2678 105.778C55.4246 107.765 55.9998 109.804 56.941 111.529C57.4116 112.575 55.8429 113.255 55.4769 112.209Z" fill="black"/>
<path d="M90.8233 114.981C89.3592 111.686 85.7514 110.013 82.5618 108.863C80.5749 108.235 78.3788 107.765 76.2873 107.451C71.2154 106.667 64.052 105.464 58.9801 104.941C58.9278 104.941 58.9278 104.837 58.9801 104.837C60.4442 104.68 61.9082 104.68 63.3723 104.68C67.7644 104.785 72.1566 105.255 76.4965 105.935C80.8363 106.615 85.4899 107.922 88.7841 111.059C89.8298 112.157 90.771 113.412 91.0324 114.928C91.0847 115.085 90.8756 115.137 90.8233 114.981Z" fill="black"/>
<path d="M95.6859 128.418C94.5879 133.804 87.4767 137.046 75.5029 132.183C63.0585 127.163 57.6728 115.19 56.3134 111.634C63.6859 97.8301 58.5617 88.2614 58.5617 88.2614C75.5552 86.7974 90.4049 106.667 90.4049 106.667L92.7055 116.497C92.9147 117.333 93.333 118.065 93.9604 118.588C95.0584 120.523 96.3656 124.967 95.6859 128.418Z" fill="white"/>
<path d="M56.0522 111.791C57.0456 110.275 57.6731 108.497 58.0914 106.771C58.8757 103.163 59.1371 99.5033 59.1894 95.8432V94.4837C59.0326 93.1242 58.562 91.7124 58.0391 90.4575C57.3594 88.7843 59.8169 87.7386 60.6012 89.4118C60.7058 89.6209 60.7058 89.987 60.7058 90.1961C60.8626 97.3072 61.1764 106.458 56.6796 112.366C56.3659 112.68 55.7385 112.209 56.0522 111.791Z" fill="black"/>
<path d="M90.9801 106.562C91.7644 107.033 92.0258 107.66 92.1304 108.288C92.4441 109.543 92.3396 110.902 92.6533 112.209C92.9147 113.464 93.6991 114.667 93.9082 115.974C94.1696 117.333 94.9539 120.209 95.2677 121.621C95.3722 121.935 95.1631 122.301 94.7971 122.353C94.5879 122.405 94.4311 122.353 94.2742 122.248C93.5945 121.673 93.2808 121.098 92.8624 120.366C92.1827 119.111 91.7121 117.961 91.2938 116.549C90.9278 115.294 91.0847 113.935 90.7709 112.628C90.5095 111.373 89.7775 110.17 89.516 108.863C89.3592 108.235 89.3069 107.556 89.7775 106.771C90.0912 106.458 90.6141 106.353 90.9801 106.562Z" fill="black"/>
<path d="M94.7449 120.366C84.758 119.843 76.6012 116.706 68.6534 102.536C75.3463 108.444 83.2417 110.693 91.5554 111.738L92.6534 116.549C92.8626 117.386 94.1175 119.843 94.7449 120.366Z" fill="black"/>
<path d="M94.3268 118.431C96.1046 121.778 97.1504 125.961 96.0523 129.673C95.2157 132.288 92.8105 134.222 90.1961 134.954C84.1307 136.575 77.1242 134.013 71.7386 131.137C65.0981 127.425 60.183 121.203 57.0458 114.405C56.8366 113.882 57.5687 113.464 57.8824 113.987C58.9804 116.183 60.2353 118.327 61.6471 120.261C63.0589 122.248 64.6798 124.078 66.5098 125.699C71.8432 130.51 79.0589 133.49 86.2745 133.49C93.6994 133.281 96.5229 129.359 94.7974 122.144C94.536 120.993 94.1177 119.791 93.5425 118.797C93.2288 118.379 94.0131 117.908 94.3268 118.431Z" fill="black"/>
<path d="M114.562 55.6341C115.503 60.0262 115.974 63.5818 113.412 75.2942C110.902 86.9543 117.02 89.3596 102.536 108.026C96.6274 115.66 82.3006 113.516 70.6927 105.621C66.7711 102.954 65.0979 96.1047 62.1698 91.2419C59.8692 87.4249 58.8234 91.3988 55.7908 88.1047C51.66 83.6079 46.6927 74.5622 49.1502 58.5622C53.1241 32.6275 73.6731 29.5949 88.8888 32.4707C104.209 35.3988 112.052 44.0785 114.562 55.6341Z" fill="white"/>
<path d="M58.4052 92.7582C57.2025 90.719 55.6339 88.9412 54.1699 87.0589C52.7581 85.1242 51.6078 82.9804 50.6666 80.7844C44.4444 65.5164 46.8496 44.0262 62.1176 35.0327C68.4444 31.3726 76.0784 30.4837 83.1895 31.0589C98.4052 32.1569 112.366 39.1634 115.66 55.268C117.438 62.3791 115.033 69.6994 113.673 76.6536C113.046 80.1046 113.569 83.6602 113.516 87.2157C113.464 90.8236 112.471 94.4314 111.111 97.7778C110.274 100.078 108.81 102.118 107.294 104C104.784 107.033 102.274 110.118 99.0849 112.471C98.3529 112.994 97.0457 113.255 96.1568 113.36C93.6993 113.726 91.294 113.83 88.8365 113.673C79.2156 113.255 68.915 108.601 65.0457 99.2942C64.8888 98.9281 65.4117 98.6667 65.6208 98.9804C70.6404 106.928 79.8431 110.85 88.9934 111.373C91.8169 111.529 94.6927 111.477 97.464 110.902C98.8235 110.222 100.026 109.02 101.176 107.922C104 105.098 106.876 102.065 108.915 98.6144C111.372 93.9608 112.732 88.8889 112.314 83.6079C112.209 81.2549 112.157 78.7974 112.627 76.4445C113.046 74.0915 113.569 71.8432 113.882 69.438C114.196 67.1373 114.353 64.7844 114.353 62.4837C114.091 55.7386 111.895 48.7844 107.608 43.5556C98.1437 31.7909 75.7646 28.7059 63.1633 36.7582C55.2156 41.6732 51.5032 50.8759 50.3006 59.817C48.4705 70.536 48.9934 81.0981 57.5163 88.8889L60.0261 91.5033C61.0195 92.6536 59.2418 94.0131 58.4052 92.7582Z" fill="black"/>
<path d="M64.5749 76.1308C64.5749 76.1308 62.954 68.2876 55.32 69.2288C48.7317 70.0654 46.4311 85.8562 61.3853 90.2484" fill="white"/>
<path d="M60.7058 83.3987C59.5032 82.719 58.6666 81.5686 58.6143 80.1569C58.6666 79.1111 58.8234 77.9085 58.562 76.8628C58.4051 75.8693 57.3594 75.6078 56.575 75.6601C55.7384 75.817 55.2156 76.8628 55.0587 77.6994C55.0587 77.7516 55.0064 77.9085 55.0064 77.9608C54.9541 78.2222 54.5358 78.2222 54.4313 77.9608C53.7515 75.9216 55.2679 73.6732 57.4639 73.9346C60.5489 74.1438 60.9672 77.3856 60.392 79.8431C60.0783 80.8889 60.4966 81.8301 61.0718 82.719L61.1764 82.8758C61.4378 83.1895 61.0195 83.6078 60.7058 83.3987Z" fill="black"/>
<path d="M102.536 70.5882C103.32 74.3006 104.784 77.7516 106.614 80.9934C108.235 84.9672 104.052 88.732 100.34 88.5751C99.9214 88.5751 99.8691 87.9999 100.235 87.8954C102.588 87.1633 104.732 85.5947 105.098 83.1895C105.255 82.4575 105.046 81.83 104.68 81.2025C102.954 77.9607 101.908 74.2483 102.17 70.5882C102.17 70.3267 102.536 70.3267 102.536 70.5882Z" fill="black"/>
<path d="M64.3137 76.183C63.1111 73.098 60.4967 70.1699 56.9934 70.2222C56.6797 70.1699 56.1568 70.2745 55.8431 70.2745C54.9542 70.3268 54.2222 70.6405 53.5425 71.268C50.1961 74.6144 50.7712 80.5229 53.4902 84.2353C54.4314 85.5425 55.634 86.6928 56.9934 87.634C58.3529 88.5752 59.8693 89.3072 61.4902 89.9346C61.8562 90.0392 61.6993 90.6144 61.3333 90.5621C57.83 89.8301 54.4836 88.1046 52.183 85.2287C48.6274 80.9412 47.8954 73.7778 52.1307 69.5948C53.0719 68.7582 54.3791 68.1307 55.6863 68.1307C56.1046 68.1307 56.732 68.0261 57.1503 68.1307C59.3464 68.2353 61.4379 69.3333 62.7974 71.0588C64 72.5229 64.6797 74.3006 64.8889 76.0784C64.8889 76.3921 64.4183 76.4967 64.3137 76.183Z" fill="black"/>
<path d="M97.3593 93.5947C97.4115 94.4313 96.7841 95.8953 95.6338 96.9411C89.7253 93.3332 87.0586 95.2156 87.0586 95.2156C84.9671 92.026 85.4377 87.6862 90.5096 90.9803C94.0129 93.2809 96.2089 93.6469 97.3593 93.5947Z" fill="black"/>
<path d="M95.5815 96.9934C94.3266 98.0915 92.4443 98.7712 89.8822 97.7254C88.6795 97.2548 87.7384 96.3137 87.0063 95.2679C87.0586 95.2679 89.673 93.3856 95.5815 96.9934Z" fill="white"/>
<path d="M98.3528 93.4378C98.3528 93.4378 96.1567 94.6404 90.5096 91.0325C83.7645 86.6927 85.124 95.7907 89.8822 97.7254C94.8495 99.7646 97.4116 95.3201 97.3593 93.6469" stroke="black" stroke-width="3" stroke-miterlimit="10" stroke-linecap="round" stroke-linejoin="round"/>
<path d="M87.0588 95.2679C87.0588 95.2679 89.7255 93.3856 95.634 96.9934" stroke="black" stroke-width="3" stroke-miterlimit="10" stroke-linecap="round" stroke-linejoin="round"/>
<path d="M90.7187 65.0458C91.869 65.2027 92.7579 64.0001 92.3396 62.8498C92.1305 62.2223 91.7644 61.6471 91.1893 61.2811C89.4115 60.1831 82.771 60.0785 79.2677 62.5883C76.1305 64.889 85.4899 64.3138 90.7187 65.0458Z" fill="black"/>
<path d="M105.202 65.6209C104.261 65.6209 103.686 64.4183 104.157 63.4248C104.418 62.902 104.784 62.4314 105.307 62.1699C106.928 61.3856 111.268 61.8562 113.202 64.5229C114.928 66.8758 109.542 65.5686 105.202 65.6209Z" fill="black"/>
<path d="M88.784 71.7909C86.1174 70.6406 83.0847 70.9543 80.3135 71.5817C79.9997 71.6863 79.7906 71.268 80.052 71.0588C82.4572 69.0719 87.0063 68.8105 88.9409 71.5294C89.0978 71.634 88.9932 71.8432 88.784 71.7909Z" fill="black"/>
<path d="M109.333 72.8891C108.078 72.0002 106.248 72.1571 104.784 72.3139C104.261 72.3662 103.738 72.4708 103.163 72.6276C103.006 72.6799 102.849 72.4185 102.954 72.3139L103.059 72.2094C104.366 70.8499 106.405 70.5361 108.183 71.2159C108.81 71.4773 109.438 71.8433 109.751 72.5754C109.908 72.8368 109.542 73.0982 109.333 72.8891Z" fill="black"/>
<path d="M118.536 43.1896C122.249 29.7517 107.19 21.3334 103.164 27.3987C100.235 31.7909 88.9413 28.3922 71.791 28.0785C54.6407 27.7125 50.0394 36.8105 49.8302 46.5883C49.8302 46.5883 42.3008 50.5621 42.7714 64.5752C43.242 79.1112 58.1963 90.8236 60.0263 98.1961C60.0263 98.1961 60.2355 99.1373 58.2485 89.0458C46.8498 83.5556 49.2551 70.0131 55.3727 69.2288C60.0263 68.6536 62.4838 71.3726 63.6342 73.5687C64.1047 74.1961 68.5492 79.634 68.6538 61.8563C68.7061 49.7255 80.523 45.7517 93.961 50.6667C100.967 53.2288 108.34 55.1112 113.412 51.451C114.249 53.8563 115.137 56.5229 114.458 59.7648C116.497 57.8824 118.222 55.1112 118.693 51.7125C119.007 49.6732 118.484 47.8955 117.334 46.3268C117.804 45.438 118.222 44.3399 118.536 43.1896Z" fill="black"/>
<path d="M150.693 44.0785C182.431 105.203 126.641 174.17 60.1308 157.333C30.2746 149.909 6.27457 124.026 1.30725 93.6471C-4.33981 63.4249 9.30725 30.9543 34.8236 13.8563C69.804 -10.196 118.275 -2.19602 143.32 32.2092C143.477 32.3661 143.425 32.6275 143.216 32.7844C143.059 32.9412 142.797 32.889 142.641 32.6798C139.19 28.2354 135.268 24.2092 130.98 20.6014C123.922 14.5883 115.66 9.88241 106.928 6.69287C62.4837 -9.41171 13.6994 17.3595 3.97391 63.8432C-7.00648 115.922 37.2811 163.869 90.0916 156.706C130.824 151.582 161.098 113.987 157.752 73.0981C157.02 63.2157 154.405 53.438 150.065 44.4445C149.961 44.2876 150.065 44.0785 150.222 43.9739C150.379 43.8693 150.588 43.9216 150.693 44.0785Z" fill="white"/>
</g>
<defs>
<linearGradient id="paint0_linear_1143_2041" x1="5.80371" y1="137.595" x2="140.915" y2="137.595" gradientUnits="userSpaceOnUse">
<stop stop-color="#9955E8"/>
<stop offset="1" stop-color="#7BFFAF"/>
</linearGradient>
</defs>
</svg>
