<svg width="312" height="180" viewBox="0 0 312 180" fill="none" xmlns="http://www.w3.org/2000/svg">
<path d="M31.4277 79.4168H68.2277C68.2277 79.4168 78.9523 80.8161 74.5212 91.2624H84.2845C85.819 89.1412 86.8117 86.6794 87.1768 84.09C87.5419 81.5006 87.2684 78.8615 86.3798 76.4011C83.3758 67.8106 73.3271 66.1868 73.3271 66.1868H34.4318C34.4318 66.1868 24.8638 70.1303 31.4277 79.4168Z" fill="black" stroke="black" stroke-width="1.1326" stroke-linecap="round" stroke-linejoin="round"/>
<path d="M115.196 130.728C111.314 118.755 105.658 109.618 107.07 96.2536C107.671 90.6039 110.074 85.1114 110.292 79.4467C110.81 63.9419 91.419 64.0915 86.5975 50.8765C82.3617 39.2703 82.0088 34.3464 73.5372 33.9947C65.0657 33.643 36.4669 30.4777 29.7603 32.2362C23.0536 33.9947 18.1044 50.1955 12.4868 57.2071C6.86915 64.2187 0.132493 74.0963 4.72123 87.1393C9.30996 100.182 15.6561 117.356 16.3395 132.135C17.0229 146.914 17.0455 160.974 17.0455 160.974H118.373C118.373 160.974 119.079 142.686 115.196 130.728ZM71.0664 89.5713H44.2324C41.7501 89.5018 39.3928 88.4705 37.6617 86.6966C35.9306 84.9226 34.9621 82.5458 34.9621 80.0715C34.9621 77.5972 35.9306 75.2205 37.6617 73.4465C39.3928 71.6726 41.7501 70.6412 44.2324 70.5718H71.0664C73.5487 70.6412 75.906 71.6726 77.6371 73.4465C79.3682 75.2205 80.3367 77.5972 80.3367 80.0715C80.3367 82.5458 79.3682 84.9226 77.6371 86.6966C75.906 88.4705 73.5487 89.5018 71.0664 89.5713Z" fill="url(#paint0_linear_1157_1654)" stroke="black" stroke-width="1.1326" stroke-linecap="round" stroke-linejoin="round"/>
<path d="M16.2946 51.1459C22.8284 54.5432 32.3814 61.1956 38.0741 72.8467C39.7904 71.3775 41.9773 70.568 44.24 70.5644H71.074C72.3886 70.5663 73.6884 70.8408 74.8908 71.3703C76.0933 71.8997 77.172 72.6726 78.0585 73.6399L78.2612 73.7746C81.2653 68.6487 85.5837 62.0861 90.4804 56.9228C88.7717 55.202 87.4506 53.1383 86.6051 50.869C82.3693 39.2628 82.0164 34.339 73.5448 33.9873C65.0733 33.6356 36.4745 30.4703 29.7679 32.2288C24.6008 33.5832 20.4852 43.4608 16.2946 51.1459Z" fill="black" stroke="black" stroke-width="1.1326" stroke-linecap="round" stroke-linejoin="round"/>
<path d="M34.8298 161.326H108.94C108.407 154.644 107.108 138.877 106.011 129.673C104.6 117.7 103.894 109.97 100.364 106.476C96.834 102.981 74.5963 86.406 68.2276 85.7026C68.2276 85.7026 49.8652 84.2958 44.195 85.3509C38.5248 86.406 26.9215 104.695 26.9215 107.86C26.9215 110.861 35.1827 141.646 34.8298 161.326Z" fill="black" stroke="black" stroke-width="1.1326" stroke-linecap="round" stroke-linejoin="round"/>
<path d="M20.2224 128.969C19.1635 114.19 7.86813 80.0753 5.39727 74.4481C4.75698 72.662 4.66546 70.7263 5.13441 68.8882C2.67447 74.6865 2.51609 81.1992 4.69131 87.1094C9.28005 100.122 15.6337 117.356 16.3396 132.135C17.0456 146.914 17.0456 160.974 17.0456 160.974H19.9821C20.29 153.619 21.1011 141.189 20.2224 128.969Z" fill="black" stroke="black" stroke-width="1.1326" stroke-linecap="round" stroke-linejoin="round"/>
<path d="M82.0088 107.156C77.7731 100.474 63.9843 103.639 53.057 103.288C42.1296 102.936 41.0406 106.101 41.0406 112.08C41.0406 117.161 46.3954 150.94 48.0026 160.974H93.0113C93.0113 141.331 86.0493 113.532 82.0088 107.156Z" fill="url(#paint1_linear_1157_1654)" stroke="black" stroke-width="1.1326" stroke-linecap="round" stroke-linejoin="round"/>
<path d="M67.6344 102.861C63.0532 102.951 58.0514 103.407 53.5077 103.303C55.4378 109.528 62.9856 135.36 63.639 160.974H77.8182C77.0897 149.286 74.7466 123.612 67.6344 102.861Z" fill="white" stroke="black" stroke-width="1.1326" stroke-linecap="round" stroke-linejoin="round"/>
<path d="M132.958 96.4333C132.958 96.4333 136.21 97.8776 139.462 103.64C142.714 109.401 188.526 135.315 189.255 142.551C189.983 149.787 192.454 150.872 183.051 152.279C173.648 153.686 160.438 144.048 144.524 135.368C128.61 126.687 121.024 127.428 121.024 127.428L132.958 96.4333Z" fill="white" stroke="black" stroke-width="1.1326" stroke-linecap="round" stroke-linejoin="round"/>
<path d="M179.784 134.717C179.784 134.717 169.66 136.019 166.071 140.247C162.481 144.474 168.016 151.082 171.448 152.332C174.88 153.581 185.334 152.609 188.271 147.094C191.207 141.579 188.924 140.261 185.004 137.366" fill="white"/>
<path d="M179.784 134.717C179.784 134.717 169.66 136.019 166.071 140.247C162.481 144.474 168.016 151.082 171.448 152.332C174.88 153.581 185.334 152.609 188.271 147.094C191.207 141.579 188.924 140.261 185.004 137.366" stroke="black" stroke-width="1.1326" stroke-linecap="round" stroke-linejoin="round"/>
<path d="M171.365 144.1C171.365 144.1 167.61 146.936 166.747 147.729C165.883 148.523 164.614 151.98 163.742 152.593C162.871 153.207 159.657 153.746 159.296 154.629C158.936 155.512 162.143 156.492 164.629 156.402C167.115 156.312 169.067 153.409 171.463 152.331C173.015 151.674 174.669 151.285 176.352 151.179C176.352 151.179 178.568 146.315 177.681 144.37C176.795 142.424 173.371 142.686 171.365 144.1Z" fill="white" stroke="black" stroke-width="1.1326" stroke-linecap="round" stroke-linejoin="round"/>
<path d="M180.272 138.877C179.48 138.735 178.669 138.735 177.877 138.877C175.953 139.15 174.051 139.555 172.184 140.089C171.26 140.553 169.833 146.398 169.142 149.159C168.451 151.92 165.71 156.896 166.889 157.128C168.068 157.36 170.975 158.011 171.47 156.238C172.274 153.409 174.054 148.149 174.054 148.149C174.054 148.149 172.665 153.215 173.356 154.135C174.046 155.055 185.139 154.823 186.528 154.36C187.918 153.896 191.147 147.917 191.38 144.691C191.553 141.945 183.765 139.543 180.272 138.877Z" fill="white" stroke="black" stroke-width="1.1326" stroke-linecap="round" stroke-linejoin="round"/>
<path d="M178.109 154.539L180.956 143.479" stroke="black" stroke-width="1.1326" stroke-linecap="round" stroke-linejoin="round"/>
<path d="M184.148 154.367L186.814 143.928" stroke="black" stroke-width="1.1326" stroke-linecap="round" stroke-linejoin="round"/>
<path d="M174.031 148.134L175.443 143.127" stroke="black" stroke-width="1.1326" stroke-linecap="round" stroke-linejoin="round"/>
<path d="M152.845 111.564C141.655 101.657 129.075 88.2544 114.581 83.4428C110.838 82.2437 107.368 80.3242 104.367 77.7931C104.367 77.7931 94.1754 70.5944 87.7241 70.2427C80.3416 69.8312 74.6414 77.6135 71.2017 83.1959C55.9109 108.092 53.9282 136.887 53.3424 165.509H121.024C121.024 165.509 117.089 159.441 121.385 141.96C122.195 138.636 123.239 135.373 124.509 132.195C125.763 132.734 127.145 133.31 128.617 133.916C134.761 136.438 148.895 144.392 148.895 144.392L164.794 121.412C164.794 121.412 156.097 114.452 152.845 111.564Z" fill="black" stroke="#4E4563" stroke-width="1.1326" stroke-linecap="round" stroke-linejoin="round"/>
<path d="M91.1037 74.942C89.121 71.4175 84.8102 67.7882 78.0585 71.6644C69.3166 76.678 43.3238 128.393 41.5364 136.243C39.7489 144.093 76.2636 149.129 90.5855 149.129C99.4532 149.113 108.314 148.645 117.134 147.729L119.95 149.481C119.95 149.481 119.95 156.26 122.459 156.964C124.967 157.667 132.845 157.712 135.346 156.253C137.847 154.793 137.141 150.902 137.141 150.902C137.141 150.902 138.929 158.752 141.79 159.463C142.739 159.709 143.733 159.724 144.689 159.508C144.914 159.454 145.122 159.343 145.291 159.185C145.46 159.028 145.585 158.829 145.654 158.609C145.723 158.388 145.733 158.154 145.684 157.929C145.634 157.703 145.527 157.494 145.372 157.323L144.621 156.432L139.672 145.552C139.672 145.552 138.305 139.67 136.518 139.67C134.73 139.67 120.341 139.483 120.341 139.483C120.341 139.483 95.9929 136.632 85.6063 133.774C75.2196 130.915 69.7297 126.927 69.7297 126.927L89.6467 94.555" fill="white"/>
<mask id="mask0_1157_1654" style="mask-type:luminance" maskUnits="userSpaceOnUse" x="41" y="69" width="105" height="91">
<path d="M91.1037 74.942C89.121 71.4175 84.8102 67.7882 78.0585 71.6644C69.3166 76.678 43.3238 128.393 41.5364 136.243C39.7489 144.093 76.2636 149.129 90.5855 149.129C99.4532 149.113 108.314 148.645 117.134 147.729L119.95 149.481C119.95 149.481 119.95 156.26 122.459 156.964C124.967 157.667 132.845 157.712 135.346 156.253C137.847 154.793 137.141 150.902 137.141 150.902C137.141 150.902 138.929 158.752 141.79 159.463C142.739 159.709 143.733 159.724 144.689 159.508C144.914 159.454 145.122 159.343 145.291 159.185C145.46 159.028 145.585 158.829 145.654 158.609C145.723 158.388 145.733 158.154 145.684 157.929C145.634 157.703 145.527 157.494 145.372 157.323L144.621 156.432L139.672 145.552C139.672 145.552 138.305 139.67 136.518 139.67C134.73 139.67 120.341 139.483 120.341 139.483C120.341 139.483 95.9929 136.632 85.6063 133.774C75.2196 130.915 69.7297 126.927 69.7297 126.927L89.6467 94.555" fill="white"/>
</mask>
<g mask="url(#mask0_1157_1654)">
<path d="M116.503 144.721C111.126 144.093 94.6636 144.407 73.4473 141.564C52.2309 138.72 47.1615 133.676 51.2846 132.419C55.4077 131.162 69.3091 128.319 70.2855 128.319C71.2618 128.319 52.5539 124.846 52.5539 124.846L62.625 93.1108C52.8618 110.045 42.6329 131.424 41.5364 136.243C39.7415 144.093 76.2636 149.129 90.5855 149.129C99.4532 149.113 108.314 148.646 117.134 147.73L119.95 149.481C119.95 149.481 119.95 156.26 122.459 156.964C123.197 157.149 123.952 157.267 124.712 157.315C125.747 156.441 126.439 155.229 126.665 153.896C127.198 150.528 121.888 145.387 116.503 144.721Z" fill="url(#paint2_linear_1157_1654)"/>
<path opacity="0.5" d="M116.503 144.721C111.126 144.093 94.6636 144.407 73.4473 141.564C52.2309 138.72 47.1615 133.676 51.2846 132.419C55.4077 131.162 69.3091 128.319 70.2855 128.319C71.2618 128.319 52.5539 124.846 52.5539 124.846L62.625 93.1108C52.8618 110.045 42.6329 131.424 41.5364 136.243C39.7415 144.093 76.2636 149.129 90.5855 149.129C99.4532 149.113 108.314 148.646 117.134 147.73L119.95 149.481C119.95 149.481 119.95 156.26 122.459 156.964C123.197 157.149 123.952 157.267 124.712 157.315C125.747 156.441 126.439 155.229 126.665 153.896C127.198 150.528 121.888 145.387 116.503 144.721Z" fill="white"/>
</g>
<path d="M91.1037 74.942C89.121 71.4175 84.8102 67.7882 78.0585 71.6644C69.3166 76.678 43.3238 128.393 41.5364 136.243C39.7489 144.093 76.2636 149.129 90.5855 149.129C99.4532 149.113 108.314 148.645 117.134 147.729L119.95 149.481C119.95 149.481 119.95 156.26 122.459 156.964C124.967 157.667 132.845 157.712 135.346 156.253C137.847 154.793 137.141 150.902 137.141 150.902C137.141 150.902 138.929 158.752 141.79 159.463C142.739 159.709 143.733 159.724 144.689 159.508C144.914 159.454 145.122 159.343 145.291 159.185C145.46 159.028 145.585 158.829 145.654 158.609C145.723 158.388 145.733 158.154 145.684 157.929C145.634 157.703 145.527 157.494 145.372 157.323L144.621 156.432L139.672 145.552C139.672 145.552 138.305 139.67 136.518 139.67C134.73 139.67 120.341 139.483 120.341 139.483C120.341 139.483 95.9929 136.632 85.6063 133.774C75.2196 130.915 69.7297 126.927 69.7297 126.927L89.6467 94.555" stroke="black" stroke-width="1.1326" stroke-linecap="round" stroke-linejoin="round"/>
<path d="M131.486 145.432C131.486 145.432 134.145 153.2 134.145 154.472C134.105 155.354 133.888 156.219 133.506 157.016" stroke="black" stroke-width="1.1326" stroke-linecap="round" stroke-linejoin="round"/>
<path d="M126.92 146.629C126.92 146.629 129.466 153.836 129.684 155.317C129.77 155.695 129.756 156.089 129.644 156.46C129.532 156.831 129.326 157.167 129.045 157.435" stroke="black" stroke-width="1.1326" stroke-linecap="round" stroke-linejoin="round"/>
<path d="M137.141 150.872L135.421 144.302" stroke="black" stroke-width="1.1326" stroke-linecap="round" stroke-linejoin="round"/>
<path d="M119.95 149.443L123.51 150.655C123.51 150.655 125.643 151.718 123.938 153.2" fill="white"/>
<path d="M119.95 149.443L123.51 150.655C123.51 150.655 125.643 151.718 123.938 153.2" stroke="black" stroke-width="1.1326" stroke-linecap="round" stroke-linejoin="round"/>
<path d="M92.4631 75.8623C92.4631 75.8623 90.5555 69.5017 82.8951 69.2922C75.2347 69.0827 69.7297 77.98 66.0948 83.278C62.4599 88.576 52.9144 109.124 51.8254 111.669C50.7364 114.213 44.6006 125.228 44.6006 125.228C44.6006 125.228 47.7849 128.221 55.4453 128.221H72.2456C72.2456 128.221 72.8765 128.004 73.3046 126.103C73.5237 125.27 73.667 124.418 73.7327 123.559L92.8687 91.9883" fill="black"/>
<path d="M92.4631 75.8623C92.4631 75.8623 90.5555 69.5017 82.8951 69.2922C75.2347 69.0827 69.7297 77.98 66.0948 83.278C62.4599 88.576 52.9144 109.124 51.8254 111.669C50.7364 114.213 44.6006 125.228 44.6006 125.228C44.6006 125.228 47.7849 128.221 55.4453 128.221H72.2456C72.2456 128.221 72.8765 128.004 73.3046 126.103C73.5237 125.27 73.667 124.418 73.7327 123.559L92.8687 91.9883" stroke="#4E4563" stroke-width="1.1326" stroke-linecap="round" stroke-linejoin="round"/>
<path d="M144.704 149.525L146.221 153.312" stroke="black" stroke-width="1.1326" stroke-linecap="round" stroke-linejoin="round"/>
<path d="M145.846 146.876L147.746 151.419" stroke="black" stroke-width="1.1326" stroke-linecap="round" stroke-linejoin="round"/>
<path d="M132.77 116.495L124.509 132.187L137.344 120.731" stroke="black" stroke-width="1.1326" stroke-linecap="round" stroke-linejoin="round"/>
<path d="M114.581 83.4428C110.838 82.2437 107.368 80.3242 104.367 77.7931C104.367 77.7931 102.684 76.6033 100.259 75.1741C101.603 81.7367 105.711 100.616 108.94 103.812C112.042 106.902 118.614 93.6946 121.227 86.2714C119.09 85.1556 116.867 84.2098 114.581 83.4428Z" fill="white" stroke="black" stroke-width="1.1326" stroke-linecap="round" stroke-linejoin="round"/>
<path d="M135.151 71.2079C140.166 71.2079 144.231 66.015 144.231 59.6092C144.231 53.2034 140.166 48.0105 135.151 48.0105C130.136 48.0105 126.071 53.2034 126.071 59.6092C126.071 66.015 130.136 71.2079 135.151 71.2079Z" fill="white" stroke="black" stroke-width="1.1326" stroke-linecap="round" stroke-linejoin="round"/>
<path d="M104.802 57.0127C104.802 57.0127 103.496 71.7318 104.367 77.7931C105.238 83.8544 108.708 102.899 111.314 97.7055C113.92 92.5122 123.052 75.6305 123.052 75.6305C123.052 75.6305 107.408 63.942 104.802 57.0127Z" fill="white"/>
<mask id="mask1_1157_1654" style="mask-type:luminance" maskUnits="userSpaceOnUse" x="104" y="57" width="20" height="42">
<path d="M104.802 57.0127C104.802 57.0127 103.496 71.7318 104.367 77.7931C105.238 83.8544 108.708 102.899 111.314 97.7055C113.92 92.5122 123.052 75.6305 123.052 75.6305C123.052 75.6305 107.408 63.942 104.802 57.0127Z" fill="white"/>
</mask>
<g mask="url(#mask1_1157_1654)">
<path d="M104.802 57.0127C104.802 57.0127 103.496 71.7318 104.367 77.7931C104.705 80.1877 105.463 84.6101 106.402 88.7632L117.142 82.8965L121.648 78.1822L123.022 75.6305C123.022 75.6305 107.408 63.942 104.802 57.0127Z" fill="url(#paint3_linear_1157_1654)"/>
<path opacity="0.5" d="M104.802 57.0127C104.802 57.0127 103.496 71.7318 104.367 77.7931C104.705 80.1877 105.463 84.6101 106.402 88.7632L117.142 82.8965L121.648 78.1822L123.022 75.6305C123.022 75.6305 107.408 63.942 104.802 57.0127Z" fill="white"/>
</g>
<path d="M104.802 57.0127C104.802 57.0127 103.496 71.7318 104.367 77.7931C105.238 83.8544 108.708 102.899 111.314 97.7055C113.92 92.5122 123.052 75.6305 123.052 75.6305C123.052 75.6305 107.408 63.942 104.802 57.0127Z" stroke="black" stroke-width="1.1326" stroke-linecap="round" stroke-linejoin="round"/>
<path d="M102.189 54.416C102.189 54.416 99.1847 36.2323 101.761 29.303C104.337 22.3737 113.927 18.9165 125.223 22.3812C136.518 25.8458 143.037 29.303 144.749 37.1003C146.461 44.8976 140.408 49.6568 140.408 49.6568C140.408 49.6568 135.189 37.5343 129.143 36.2323C123.097 34.9302 117.412 34.5037 118.283 38.8289C119.154 43.1541 119.59 48.7888 116.984 50.9514C114.378 53.114 113.942 53.982 112.635 57.4467C111.329 60.9113 107.423 64.376 104.374 60.4399C101.325 56.5038 102.189 54.416 102.189 54.416Z" fill="black" stroke="black" stroke-width="1.1326" stroke-linecap="round" stroke-linejoin="round"/>
<path d="M105.23 55.7106C105.23 55.7106 104.367 50.0834 100.454 52.2534C96.5411 54.4235 102.189 62.6399 102.189 62.6399C102.818 68.4819 105.076 74.0316 108.708 78.6611C114.791 86.4509 125.305 87.506 131.313 82.5298C138.073 76.9325 141.302 51.363 141.302 51.363C141.302 51.363 143.908 47.8983 138.298 39.2404C132.688 30.5826 113.514 30.5826 112.23 34.0472C110.946 37.5119 116.143 44.4337 114.836 47.0303C113.529 49.6269 109.624 46.6038 108.753 51.363C107.882 56.1222 106.973 59.6093 105.23 55.7106Z" fill="white"/>
<mask id="mask2_1157_1654" style="mask-type:luminance" maskUnits="userSpaceOnUse" x="99" y="31" width="43" height="55">
<path d="M105.23 55.7106C105.23 55.7106 104.367 50.0834 100.454 52.2534C96.5411 54.4235 102.189 62.6399 102.189 62.6399C102.818 68.4819 105.076 74.0316 108.708 78.6611C114.791 86.4509 125.305 87.506 131.313 82.5298C138.073 76.9325 141.302 51.363 141.302 51.363C141.302 51.363 143.908 47.8983 138.298 39.2404C132.688 30.5826 113.514 30.5826 112.23 34.0472C110.946 37.5119 116.143 44.4337 114.836 47.0303C113.529 49.6269 109.624 46.6038 108.753 51.363C107.882 56.1222 106.973 59.6093 105.23 55.7106Z" fill="white"/>
</mask>
<g mask="url(#mask2_1157_1654)">
<path d="M138.253 39.2628C132.605 30.6049 113.469 30.6049 112.185 34.0696C110.901 37.5342 116.098 44.456 114.791 47.0526C113.484 49.6492 109.579 46.6261 108.708 51.3853C107.836 56.1445 106.973 59.6166 105.23 55.7105C105.23 55.7105 104.367 50.0833 100.454 52.2533C96.5411 54.4234 102.189 62.6398 102.189 62.6398C102.818 68.4818 105.076 74.0315 108.708 78.661C110.529 81.0584 112.947 82.9407 115.722 84.1219C118.497 85.303 121.534 85.7421 124.532 85.3957C121.935 85.0034 119.432 84.1465 117.142 82.8664C111.133 79.3943 109.541 72.7718 111.441 65.5133C113.341 58.2547 117.772 40.5948 120.003 38.7988C122.234 37.0029 123.758 38.3873 128.535 42.8023C133.311 47.2172 135.819 46.903 135.819 46.903L140.709 43.7526C140.024 42.1869 139.202 40.6844 138.253 39.2628Z" fill="url(#paint4_linear_1157_1654)"/>
<path opacity="0.5" d="M138.253 39.2628C132.605 30.6049 113.469 30.6049 112.185 34.0696C110.901 37.5342 116.098 44.456 114.791 47.0526C113.484 49.6492 109.579 46.6261 108.708 51.3853C107.836 56.1445 106.973 59.6166 105.23 55.7105C105.23 55.7105 104.367 50.0833 100.454 52.2533C96.5411 54.4234 102.189 62.6398 102.189 62.6398C102.818 68.4818 105.076 74.0315 108.708 78.661C110.529 81.0584 112.947 82.9407 115.722 84.1219C118.497 85.303 121.534 85.7421 124.532 85.3957C121.935 85.0034 119.432 84.1465 117.142 82.8664C111.133 79.3943 109.541 72.7718 111.441 65.5133C113.341 58.2547 117.772 40.5948 120.003 38.7988C122.234 37.0029 123.758 38.3873 128.535 42.8023C133.311 47.2172 135.819 46.903 135.819 46.903L140.709 43.7526C140.024 42.1869 139.202 40.6844 138.253 39.2628Z" fill="white"/>
</g>
<path d="M105.23 55.7106C105.23 55.7106 104.367 50.0834 100.454 52.2534C96.5411 54.4235 102.189 62.6399 102.189 62.6399C102.818 68.4819 105.076 74.0316 108.708 78.6611C114.791 86.4509 125.305 87.506 131.313 82.5298C138.073 76.9325 141.302 51.363 141.302 51.363C141.302 51.363 143.908 47.8983 138.298 39.2404C132.688 30.5826 113.514 30.5826 112.23 34.0472C110.946 37.5119 116.143 44.4337 114.836 47.0303C113.529 49.6269 109.624 46.6038 108.753 51.363C107.882 56.1222 106.973 59.6093 105.23 55.7106Z" stroke="black" stroke-width="1.1326" stroke-linecap="round" stroke-linejoin="round"/>
<path d="M121.843 70.6917C116.353 69.5019 115.159 65.4536 115.159 65.4536" stroke="black" stroke-width="1.1326" stroke-linecap="round" stroke-linejoin="round"/>
<path d="M123.277 59.2726C120.649 56.661 118.261 56.4215 118.261 56.4215" stroke="black" stroke-width="1.1326" stroke-linecap="round" stroke-linejoin="round"/>
<path d="M116.593 64.9819L113.244 65.7003" stroke="black" stroke-width="1.1326" stroke-linecap="round" stroke-linejoin="round"/>
<path d="M115.159 65.4609C114.63 66.1696 114.251 66.9784 114.045 67.8378C113.84 68.6972 113.813 69.5893 113.965 70.4596C114.408 73.4079 117.765 74.1338 117.765 74.1338C117.765 74.1338 118.02 70.2201 119.935 70.4596C119.935 70.4596 116.113 68.312 115.159 65.4609Z" stroke="black" stroke-width="1.1326" stroke-linecap="round" stroke-linejoin="round"/>
<path d="M114.791 65.6331C114.791 65.6331 114.273 70.5793 117.795 71.8814" stroke="black" stroke-width="0.566302" stroke-linecap="round" stroke-linejoin="round"/>
<path d="M133.949 52.201C133.949 52.201 130.33 55.8079 130.33 59.7365C130.33 63.6651 133.949 66.2916 130.99 67.2794C128.031 68.2671 127.04 67.6011 127.04 67.6011" stroke="black" stroke-width="1.1326" stroke-linecap="round" stroke-linejoin="round"/>
<path d="M123.202 56.3765C122.894 57.5888 122.451 57.05 121.843 56.8928C121.235 56.7357 120.649 57.0275 120.957 55.8153C121.265 54.603 122.016 53.735 122.632 53.8922C123.247 54.0493 123.503 55.1568 123.202 56.3765Z" fill="black"/>
<path d="M135.699 58.3371C135.391 59.5568 134.64 60.4174 134.025 60.2602C133.409 60.1031 133.146 58.9956 133.454 57.7759C133.762 56.5561 134.513 55.7031 135.129 55.8527C135.744 56.0024 136.007 57.1248 135.699 58.3371Z" fill="black"/>
<path d="M118.493 48.2725C118.493 48.2725 123.052 46.8657 127.438 52.8222" stroke="black" stroke-width="1.1326" stroke-linecap="round" stroke-linejoin="round"/>
<path d="M135.264 51.2207C135.264 51.2207 138.553 49.9112 139.214 53.1888" stroke="black" stroke-width="1.1326" stroke-linecap="round" stroke-linejoin="round"/>
<path d="M112.185 34.0696C112.185 34.0696 114.355 37.9608 120.003 38.8289C125.651 39.6969 132.605 38.8289 133.912 43.5956C135.219 48.3622 141.294 53.982 148.249 50.9514C155.203 47.9207 156.067 34.4887 151.726 28.8764C147.385 23.2641 142.166 24.1097 136.954 21.9471C131.741 19.7845 131.741 15.8859 123.916 15.8859C116.09 15.8859 106.973 23.2417 112.185 27.5744" fill="black"/>
<path d="M112.185 34.0696C112.185 34.0696 114.355 37.9608 120.003 38.8289C125.651 39.6969 132.605 38.8289 133.912 43.5956C135.219 48.3622 141.294 53.982 148.249 50.9514C155.203 47.9207 156.067 34.4887 151.726 28.8764C147.385 23.2641 142.166 24.1097 136.954 21.9471C131.741 19.7845 131.741 15.8859 123.916 15.8859C116.09 15.8859 106.973 23.2417 112.185 27.5744" stroke="black" stroke-width="1.1326" stroke-linecap="round" stroke-linejoin="round"/>
<path d="M103.143 66.7182C108.157 66.7182 112.222 61.5252 112.222 55.1195C112.222 48.7137 108.157 43.5208 103.143 43.5208C98.1279 43.5208 94.0627 48.7137 94.0627 55.1195C94.0627 61.5252 98.1279 66.7182 103.143 66.7182Z" fill="white" stroke="black" stroke-width="1.1326" stroke-linecap="round" stroke-linejoin="round"/>
<path d="M101.716 63.5454C105.333 63.5454 108.265 59.7964 108.265 55.1719C108.265 50.5473 105.333 46.7983 101.716 46.7983C98.0988 46.7983 95.1667 50.5473 95.1667 55.1719C95.1667 59.7964 98.0988 63.5454 101.716 63.5454Z" fill="url(#paint5_linear_1157_1654)" stroke="black" stroke-width="1.1326" stroke-linecap="round" stroke-linejoin="round"/>
<path d="M100.454 53.9446C100.043 53.9464 99.6464 53.7993 99.3368 53.5308C99.0272 53.2623 98.8263 52.8907 98.7716 52.4854C98.3248 48.5061 98.3374 44.4889 98.8092 40.5125C98.8348 40.2914 98.9039 40.0775 99.0125 39.883C99.1211 39.6885 99.2671 39.5173 99.4422 39.379C99.6172 39.2407 99.8179 39.1381 100.033 39.0771C100.248 39.0161 100.472 38.9979 100.694 39.0234C100.916 39.049 101.131 39.1178 101.326 39.226C101.521 39.3342 101.693 39.4797 101.832 39.6541C101.971 39.8285 102.074 40.0285 102.135 40.2425C102.196 40.4566 102.214 40.6805 102.189 40.9016C101.759 44.6024 101.741 48.3392 102.136 52.0439C102.168 52.2642 102.156 52.4885 102.1 52.704C102.044 52.9195 101.946 53.1218 101.811 53.2992C101.676 53.4767 101.507 53.6257 101.314 53.7378C101.121 53.8498 100.908 53.9227 100.687 53.9521C100.609 53.9568 100.531 53.9543 100.454 53.9446Z" fill="white" stroke="black" stroke-width="1.1326" stroke-linecap="round" stroke-linejoin="round"/>
<path d="M135.068 21.0417C135.651 21.4013 136.261 21.714 136.893 21.9771C140.033 23.2791 143.179 23.4737 146.131 24.6784C146.066 24.2898 145.923 23.9181 145.71 23.5859C141.587 17.0682 129.541 6.80893 113.462 14.6063C104.517 18.924 99.0194 27.8288 97.5174 40.3404C97.4325 41.1211 97.6589 41.9038 98.1478 42.5197C98.6367 43.1356 99.3489 43.5355 100.131 43.633H100.484C101.212 43.6257 101.912 43.3554 102.455 42.8723C102.998 42.3892 103.346 41.7262 103.435 41.0064C104.277 33.7553 107.191 24.207 116.098 19.8818C124.434 15.8709 130.885 18.0934 135.068 21.0417Z" fill="white" stroke="black" stroke-width="1.1326" stroke-linecap="round" stroke-linejoin="round"/>
<path d="M207.512 157.772H101.994V162.015H207.512V157.772Z" fill="white" stroke="black" stroke-width="1.1326" stroke-linecap="round" stroke-linejoin="round"/>
<path d="M237.26 157.772H131.741V162.015H237.26V157.772Z" fill="white" stroke="black" stroke-width="1.1326" stroke-linecap="round" stroke-linejoin="round"/>
<path d="M68.9787 150.925H84.5549C86.2739 150.925 87.9224 151.605 89.1379 152.816C90.3534 154.027 91.0362 155.67 91.0362 157.383V165.143H62.4974V157.36C62.5034 155.651 63.1889 154.015 64.4037 152.808C65.6186 151.602 67.2637 150.925 68.9787 150.925Z" fill="url(#paint6_linear_1157_1654)" stroke="black" stroke-width="1.1326" stroke-linecap="round" stroke-linejoin="round"/>
<path d="M69.7298 154.18H76.3387C78.0577 154.18 79.7062 154.86 80.9217 156.071C82.1372 157.282 82.82 158.925 82.82 160.638V168.398H63.286V160.63C63.288 158.925 63.9665 157.29 65.1737 156.082C66.3808 154.874 68.0186 154.19 69.7298 154.18Z" fill="black" stroke="black" stroke-width="1.1326" stroke-linecap="round" stroke-linejoin="round"/>
<path d="M69.7297 156.208H73.8978C75.6168 156.208 77.2653 156.888 78.4808 158.099C79.6963 159.31 80.3791 160.953 80.3791 162.666V165.554H63.2559V162.666C63.2559 160.954 63.9377 159.313 65.1515 158.102C66.3654 156.891 68.012 156.21 69.7297 156.208Z" fill="url(#paint7_linear_1157_1654)" stroke="black" stroke-width="1.1326" stroke-linecap="round" stroke-linejoin="round"/>
<path d="M262.689 71.1855H165.237V145.312H262.689V71.1855Z" fill="white" stroke="black" stroke-width="1.1326" stroke-linecap="round" stroke-linejoin="round"/>
<path d="M266.715 71.1855H169.262V145.312H266.715V71.1855Z" fill="url(#paint8_linear_1157_1654)" stroke="black" stroke-width="1.1326" stroke-linecap="round" stroke-linejoin="round"/>
<path d="M231.004 119.115H208.293V162.007H231.004V119.115Z" fill="white" stroke="black" stroke-width="1.1326" stroke-linecap="round" stroke-linejoin="round"/>
<path d="M310.026 160.6H8.02588V168.525H310.026V160.6Z" fill="white" stroke="black" stroke-width="1.1326" stroke-linecap="round" stroke-linejoin="round"/>
<path d="M310.026 160.6H112.666V168.525H310.026V160.6Z" fill="black" stroke="black" stroke-width="1.1326" stroke-linecap="round" stroke-linejoin="round"/>
<defs>
<linearGradient id="paint0_linear_1157_1654" x1="60.8121" y1="31.7079" x2="60.8121" y2="160.974" gradientUnits="userSpaceOnUse">
<stop stop-color="#7DFFAF"/>
<stop offset="1" stop-color="#9955E8"/>
</linearGradient>
<linearGradient id="paint1_linear_1157_1654" x1="67.026" y1="102.84" x2="67.026" y2="160.974" gradientUnits="userSpaceOnUse">
<stop stop-color="#7DFFAF"/>
<stop offset="1" stop-color="#9955E8"/>
</linearGradient>
<linearGradient id="paint2_linear_1157_1654" x1="84.0871" y1="93.1108" x2="84.0871" y2="157.315" gradientUnits="userSpaceOnUse">
<stop stop-color="#7DFFAF"/>
<stop offset="1" stop-color="#9955E8"/>
</linearGradient>
<linearGradient id="paint3_linear_1157_1654" x1="113.545" y1="57.0127" x2="113.545" y2="88.7632" gradientUnits="userSpaceOnUse">
<stop stop-color="#7DFFAF"/>
<stop offset="1" stop-color="#9955E8"/>
</linearGradient>
<linearGradient id="paint4_linear_1157_1654" x1="119.891" y1="31.9048" x2="119.891" y2="85.5107" gradientUnits="userSpaceOnUse">
<stop stop-color="#7DFFAF"/>
<stop offset="1" stop-color="#9955E8"/>
</linearGradient>
<linearGradient id="paint5_linear_1157_1654" x1="101.716" y1="46.7983" x2="101.716" y2="63.5454" gradientUnits="userSpaceOnUse">
<stop stop-color="#7DFFAF"/>
<stop offset="1" stop-color="#9955E8"/>
</linearGradient>
<linearGradient id="paint6_linear_1157_1654" x1="76.7668" y1="150.925" x2="76.7668" y2="165.143" gradientUnits="userSpaceOnUse">
<stop stop-color="#7DFFAF"/>
<stop offset="1" stop-color="#9955E8"/>
</linearGradient>
<linearGradient id="paint7_linear_1157_1654" x1="71.8175" y1="156.208" x2="71.8175" y2="165.554" gradientUnits="userSpaceOnUse">
<stop stop-color="#7DFFAF"/>
<stop offset="1" stop-color="#9955E8"/>
</linearGradient>
<linearGradient id="paint8_linear_1157_1654" x1="217.989" y1="71.1855" x2="217.989" y2="145.312" gradientUnits="userSpaceOnUse">
<stop stop-color="#7DFFAF"/>
<stop offset="1" stop-color="#9955E8"/>
</linearGradient>
</defs>
</svg>
